<svg width="88" height="44" viewBox="0 0 88 44" xmlns="http://www.w3.org/2000/svg" xmlns:xlink="http://www.w3.org/1999/xlink"><title>Icon Audio export</title><defs><path d="M15.044.25L6.515 7.24l-4.758.44C.769 7.79 0 8.595 0 9.62v6.478c0 .989.769 1.83 1.757 1.94l4.758.44 8.529 6.99c.695.586 1.757.074 1.757-.841V1.09C16.764.176 15.739-.336 15.044.25z" id="b"/><filter x="-11.9%" y="-3.9%" width="123.8%" height="115.6%" filterUnits="objectBoundingBox" id="a"><feOffset dy="1" in="SourceAlpha" result="shadowOffsetOuter1"/><feGaussianBlur stdDeviation=".5" in="shadowOffsetOuter1" result="shadowBlurOuter1"/><feColorMatrix values="0 0 0 0 0 0 0 0 0 0 0 0 0 0 0 0 0 0 0.2 0" in="shadowBlurOuter1"/></filter><path d="M23.419 8.79c-.476-.805-1.574-.988-2.306-.366l-.11.074c-.513.439-.66 1.208-.33 1.793.403.732.66 1.574.66 2.49 0 .914-.257 1.756-.66 2.488-.33.586-.183 1.354.33 1.794l.11.073c.695.622 1.83.476 2.306-.366a8.25 8.25 0 0 0 1.061-4.026c0-1.391-.403-2.746-1.061-3.953z" id="d"/><filter x="-50.2%" y="-10.6%" width="200.4%" height="142.3%" filterUnits="objectBoundingBox" id="c"><feOffset dy="1" in="SourceAlpha" result="shadowOffsetOuter1"/><feGaussianBlur stdDeviation=".5" in="shadowOffsetOuter1" result="shadowBlurOuter1"/><feColorMatrix values="0 0 0 0 0 0 0 0 0 0 0 0 0 0 0 0 0 0 0.2 0" in="shadowBlurOuter1"/></filter><path d="M26.954 5.39c-.512-.732-1.574-.842-2.232-.256l-.074.073a1.512 1.512 0 0 0-.22 1.977c1.172 1.647 1.83 3.696 1.83 5.856 0 2.196-.695 4.21-1.83 5.856-.439.623-.329 1.465.22 1.977l.074.073c.658.586 1.72.476 2.232-.256 1.538-2.16 2.416-4.795 2.416-7.65 0-2.855-.878-5.49-2.416-7.65z" id="f"/><filter x="-38.4%" y="-6%" width="176.7%" height="124.1%" filterUnits="objectBoundingBox" id="e"><feOffset dy="1" in="SourceAlpha" result="shadowOffsetOuter1"/><feGaussianBlur stdDeviation=".5" in="shadowOffsetOuter1" result="shadowBlurOuter1"/><feColorMatrix values="0 0 0 0 0 0 0 0 0 0 0 0 0 0 0 0 0 0 0.2 0" in="shadowBlurOuter1"/></filter><path d="M30.985 1.696c-.549-.695-1.537-.805-2.196-.22l-.11.074a1.477 1.477 0 0 0-.183 2.013c1.977 2.599 3.112 5.82 3.112 9.297 0 3.477-1.172 6.735-3.112 9.297-.476.622-.402 1.5.183 2.013l.11.073c.659.586 1.647.476 2.196-.22a18.353 18.353 0 0 0 3.77-11.2c0-4.136-1.39-8.016-3.77-11.127z" id="h"/><filter x="-30.4%" y="-4.3%" width="160.9%" height="117%" filterUnits="objectBoundingBox" id="g"><feOffset dy="1" in="SourceAlpha" result="shadowOffsetOuter1"/><feGaussianBlur stdDeviation=".5" in="shadowOffsetOuter1" result="shadowBlurOuter1"/><feColorMatrix values="0 0 0 0 0 0 0 0 0 0 0 0 0 0 0 0 0 0 0.2 0" in="shadowBlurOuter1"/></filter><path d="M15.044.25L6.515 7.24l-4.758.44C.769 7.79 0 8.595 0 9.62v6.478c0 .989.769 1.83 1.757 1.94l4.758.44 8.529 6.99c.695.586 1.757.074 1.757-.841V1.09C16.764.176 15.739-.336 15.044.25z" id="j"/><filter x="-11.9%" y="-3.9%" width="123.8%" height="115.6%" filterUnits="objectBoundingBox" id="i"><feOffset dy="1" in="SourceAlpha" result="shadowOffsetOuter1"/><feGaussianBlur stdDeviation=".5" in="shadowOffsetOuter1" result="shadowBlurOuter1"/><feColorMatrix values="0 0 0 0 0 0 0 0 0 0 0 0 0 0 0 0 0 0 0.2 0" in="shadowBlurOuter1"/></filter><path d="M26.621 13l2.125-2.124a1.504 1.504 0 0 0-.003-2.119 1.494 1.494 0 0 0-2.119-.003L24.5 10.88l-2.124-2.125a1.504 1.504 0 0 0-2.119.003 1.494 1.494 0 0 0-.003 2.119L22.38 13l-2.125 2.124a1.504 1.504 0 0 0 .003 2.119c.59.59 1.534.587 2.119.003L24.5 15.12l2.124 2.125a1.504 1.504 0 0 0 2.119-.003c.59-.59.587-1.534.003-2.119L26.62 13z" id="l"/><filter x="-21.3%" y="-10.7%" width="142.7%" height="142.7%" filterUnits="objectBoundingBox" id="k"><feOffset dy="1" in="SourceAlpha" result="shadowOffsetOuter1"/><feGaussianBlur stdDeviation=".5" in="shadowOffsetOuter1" result="shadowBlurOuter1"/><feColorMatrix values="0 0 0 0 0 0 0 0 0 0 0 0 0 0 0 0 0 0 0.2 0" in="shadowBlurOuter1"/></filter></defs><g fill="none" fill-rule="evenodd"><g fill-rule="nonzero"><g transform="translate(6 9)"><use fill="#000" filter="url(#a)" xlink:href="#b"/><use fill="#FFF" fill-rule="evenodd" xlink:href="#b"/></g><g transform="translate(6 9)"><use fill="#000" filter="url(#c)" xlink:href="#d"/><use fill="#FFF" fill-rule="evenodd" xlink:href="#d"/></g><g transform="translate(6 9)"><use fill="#000" filter="url(#e)" xlink:href="#f"/><use fill="#FFF" fill-rule="evenodd" xlink:href="#f"/></g><g transform="translate(6 9)"><use fill="#000" filter="url(#g)" xlink:href="#h"/><use fill="#FFF" fill-rule="evenodd" xlink:href="#h"/></g></g><g fill-rule="nonzero" transform="translate(50 9)"><use fill="#000" filter="url(#i)" xlink:href="#j"/><use fill="#FFF" fill-rule="evenodd" xlink:href="#j"/></g><g transform="translate(50 9)"><use fill="#000" filter="url(#k)" xlink:href="#l"/><use fill="#FFF" xlink:href="#l"/></g></g></svg>