<svg width="44" height="44" viewBox="0 0 44 44" xmlns="http://www.w3.org/2000/svg"><title>Combined Shape</title><path d="M41.466 43.882H2.516A2.416 2.416 0 0 1 .1 41.466V2.516A2.416 2.416 0 0 1 2.516.1h38.95a2.416 2.416 0 0 1 2.416 2.416v38.95a2.417 2.417 0 0 1-2.416 2.416zm-11.157 0V26.927h5.69l.853-6.607h-6.543V16.1c0-1.913.531-3.217 3.274-3.217l3.5-.001v-5.91c-.606-.08-2.683-.26-5.1-.26-5.044 0-8.498 3.079-8.498 8.734v4.873H17.78v6.607h5.705v16.955h6.824z" fill="#3C5A99" fill-rule="evenodd"/></svg>