<svg xmlns="http://www.w3.org/2000/svg" viewBox="0 0 406 190"><path fill="#F8EA30" d="M393.1 23.1H31.6c-6.7 0-12.8 5.4-13.7 12l-15.6 121c-.9 6.6 3.9 12 10.6 12h361.4c6.7 0 12.8-5.4 13.7-12l15.6-120.9c.9-6.7-3.9-12.1-10.5-12.1z"/><circle fill="#E48933" cx="203.9" cy="95" r="92.1"/><path fill="#343B93" d="M383.1 87.2c-1.1-4.3-3-8.2-5.6-11.7-2.7-3.6-6.2-6.6-10.6-8.9-4.4-2.3-9.3-3.4-14.6-3.4-6.8 0-13.3 1.8-19.4 5.4-4.9 2.9-9.1 6.6-12.5 11l4.1-29.1c.6-4.1-.2-7.6-2.4-10.4-2.3-2.9-5.6-4.4-9.6-4.4-3.8 0-7.1 1.3-9.8 3.9-2.6 2.5-4.3 5.8-4.8 9.7l-4.7 32.9c-1-2.3-2.3-4.6-3.8-6.6-2.7-3.6-6.2-6.6-10.6-8.9-4.4-2.3-9.3-3.4-14.6-3.4-6.8 0-13.3 1.8-19.4 5.4-5.5 3.3-10.2 7.6-13.8 12.8l.4-2.7c.6-4.1-.2-7.6-2.4-10.4-2.3-2.9-5.6-4.4-9.6-4.4-4.1 0-7.6 1.4-10.2 4-1-.8-2.1-1.6-3.4-2.2-3.5-1.7-7.2-2.6-11.1-2.6-6.6 0-12.8 1.9-18.5 5.6-5.5 3.6-9.9 8.2-13.3 13.8l.3-2.1c.1-.9.2-1.7.3-2.3.1-.7.1-1.5.1-2.5 0-1.2 0-2.3-.2-3.2-.2-1-.5-2.1-1.1-3.3-.8-1.7-2.1-2.7-3-3.3-.8-.5-1.8-1.2-3.5-1.6-1.1-.3-1.8-.4-2.7-.5 1.5-.6 2.8-1.5 4.1-2.6 2.8-2.4 4.5-5.4 5-8.9.5-3.7-.4-7.2-2.8-9.8-2.3-2.7-5.6-4.1-9.3-4.1-3.5 0-6.8 1.2-9.5 3.7-2.8 2.4-4.5 5.5-5 9-.5 3.8.4 7.1 2.8 9.8 2.1 2.4 4.9 3.8 8.2 4-1.2.5-2.3 1.1-3.3 1.9-.5.4-1 .8-1.5 1.3-1.2-.9-2.4-1.8-3.8-2.4-3.4-1.6-7.1-2.5-11.2-2.5h-.5c.9-.5 1.8-1.1 2.6-1.9 2.8-2.4 4.5-5.4 5-8.9.5-3.7-.4-7.1-2.7-9.8-2.3-2.7-5.6-4.1-9.3-4.1-3.5 0-6.8 1.2-9.5 3.7-2.8 2.4-4.5 5.5-5 9-.5 3.7.4 7.1 2.7 9.8 1.8 2 4.1 3.4 6.8 3.9-2.6.8-5.2 2-7.6 3.5-5.5 3.3-10.1 7.9-13.8 13.7-.3.4-.5.9-.8 1.3-.6-4.8-2.5-8.9-5.6-12.3-4.8-5.2-11.5-7.8-19.8-7.8-6.4 0-11.9 1.4-16.3 4.3l-.6-.6c-2.1-1.9-4.9-2.9-8.3-2.9-3.8 0-7.1 1.3-9.8 3.9-2.6 2.5-4.3 5.8-4.8 9.7l-6.7 46.7c-.6 4.1.2 7.6 2.3 10.4 1.6 2 4.5 4.5 9.5 4.5 3.8 0 7.1-1.3 9.9-3.9 2.7-2.5 4.3-5.8 4.9-9.7l4.3-30.6c.4-2.5 1.3-4.5 2.9-6.1 1.5-1.4 3.3-2.1 5.6-2.1 2.7 0 3.9.9 4.5 1.6.9 1 1.2 2.8.9 5.2l-4.3 30.6c-.6 4.1.2 7.6 2.3 10.4 1.6 2 4.5 4.5 9.5 4.5 3.8 0 7.1-1.3 9.9-3.9 2.7-2.5 4.3-5.8 4.9-9.7l.6-4c1 2.5 2.3 4.8 3.8 7 5.5 7.6 13.3 11.4 23.1 11.4 5.7 0 11-1.7 15.9-5.1.2.4.5.7.8 1 2 2.2 4.9 3.3 8.7 3.3 2.3 0 3.7-.2 5.5-1 1.7-.7 3.1-1.6 4.4-2.9 1.1-1.1 2.1-2.5 2.8-4.4.6-1.5.9-2.8 1.1-3.8.2-.8.3-1.9.5-3.2l.4-3.2c.7 2.3 1.6 4.5 2.7 6.6 2.1 3.9 5.2 7 9.2 9.3 4 2.2 8.6 3.4 13.9 3.4 4.3 0 8.1-.7 11.6-2-.4.5-.9 1-1.4 1.4-2.4 1.9-5.2 2.8-8.5 2.8-2.4 0-4.8-.4-7.1-1.1-2.6-.9-5-1.8-7-2.6-2.7-1.2-5.1-1.7-7.2-1.7-2.9 0-5.7 1.3-8.3 3.9-2.5 2.4-4 5-4.4 7.7-.4 3.1.4 6 2.5 8.5 1.7 2.1 3.9 3.8 6.6 5 2.3 1 4.8 2 7.6 2.7 2.7.7 5.3 1.3 7.6 1.6 2.3.3 4.4.5 6.2.5 7.4 0 14.1-1.3 20-3.8 6.1-2.6 11.2-6.7 15.3-12.1 3.7-4.9 6.5-12.6 7.7-21l1.1-7.9c1.1 2.5 2.6 4.9 4.4 7.1 6.1 7.4 14.9 11.2 26.1 11.2 4.7 0 9.7-.8 14.8-2.3 5.1-1.5 9.6-3.6 13.3-6.3 1.2-.8 2.2-1.7 3.1-2.6.3 2.2 1.1 4.2 2.4 5.9 1.6 2 4.5 4.5 9.5 4.5 3.8 0 7.1-1.3 9.9-3.9 2.7-2.5 4.3-5.8 4.9-9.7l.4-2.6c1 2 2.3 4 3.8 5.8 6.1 7.4 14.9 11.2 26.1 11.2 4.7 0 9.7-.8 14.8-2.3 5.1-1.5 9.6-3.6 13.3-6.3 4.3-3.1 6.8-6.5 7.3-10.2.4-3.1-.4-6.1-2.4-8.6-.4-.5-.9-1-1.3-1.4 1.5-.5 2.9-1.3 4-2.3 2.2-2 3.6-4.9 4.1-8.6.5-4.6.2-9-1-13.3zM133.8 101c-.3 2.4-1.1 4.8-2.2 6.9a14 14 0 0 1-4.3 5.1c-1.6 1.2-3.3 1.8-5.3 1.8-2.5 0-3.7-.9-4.3-1.5-1.3-1.2-2.1-2.6-2.5-4.4-.5-2.1-.5-4.3-.2-6.7.4-2.5 1.1-4.8 2.2-7 1-2 2.4-3.7 4.3-5.2 1.7-1.3 3.5-1.9 5.5-1.9 2.3 0 3.4.8 4.1 1.5 1.3 1.2 2 2.7 2.4 4.5.6 2.2.6 4.5.3 6.9zm67.9.4c-.4 2.5-1.1 4.8-2.2 6.8-1 1.9-2.4 3.5-4.3 4.9-1.7 1.2-3.5 1.8-5.5 1.8-3.5 0-4.7-1.4-5.5-2.8-1.4-2.6-1.8-5.9-1.2-10 .3-2.4 1.1-4.6 2.2-6.8 1-2 2.5-3.7 4.3-5.2 1.6-1.2 3.4-1.8 5.3-1.8 1.4 0 2.6.3 3.6.9 1 .6 1.7 1.4 2.1 2.4.6 1.4 1 2.9 1.2 4.5.3 1.7.3 3.5 0 5.3zM255 89.5c2.1-1.8 4.4-2.7 7.1-2.7 3.5 0 4.9 1.2 5.7 2.1.6.7 1 1.4 1.3 2.2h-15.8c.5-.5 1.1-1.1 1.7-1.6zm14.8 23.1c-1.3.7-2.9 1.4-4.9 2.1-1.8.6-3.5.9-5.1.9-3.4 0-6-.8-8-2.3-.4-.3-.9-.7-1.3-1.4H271c-.4.2-.8.5-1.2.7zm73.3-23.1c2.1-1.8 4.4-2.7 7.1-2.7 3.5 0 4.9 1.2 5.7 2.1.6.7 1 1.4 1.3 2.2h-15.8c.5-.5 1-1.1 1.7-1.6zm14.7 23.1c-1.3.7-2.9 1.4-4.9 2.1-1.8.6-3.5.9-5.1.9-3.4 0-6-.8-8-2.3-.4-.3-.9-.7-1.3-1.4H359c-.3.2-.7.5-1.2.7z"/><path fill="#80C04A" d="M27.1 124.9l6.7-46.7c.4-2.9 1.6-5.2 3.5-7 1.9-1.8 4.1-2.7 6.7-2.7 2.3 0 4 .6 5.3 1.7 1.3 1.1 1.9 2.7 1.9 4.8 4.1-4.8 10.1-7.2 18-7.2 7.1 0 12.6 2.1 16.5 6.4 3.9 4.2 5.4 10 4.3 17.2L85.2 125c-.4 2.9-1.6 5.2-3.5 7-1.9 1.8-4.2 2.7-6.8 2.7-2.6 0-4.6-.9-6-2.7-1.4-1.8-1.9-4.2-1.5-7L72 94.3c.6-3.9-.1-6.9-2-8.9-1.9-2.1-4.5-3.1-7.9-3.1-3.5 0-6.4 1.1-8.7 3.4-2.3 2.2-3.7 5.1-4.2 8.7L44.9 125c-.4 2.9-1.6 5.2-3.5 7-1.9 1.8-4.2 2.7-6.8 2.7-2.6 0-4.6-.9-6-2.7-1.4-1.9-1.9-4.2-1.5-7.1zM92.9 101.6c.9-6.3 3-12.1 6.4-17.3 3.3-5.2 7.5-9.3 12.4-12.2 4.9-3 10-4.4 15.3-4.4 3.4 0 6.5.7 9.2 2 2.8 1.3 4.9 3.4 6.5 6 .5-2.1 1.7-3.9 3.5-5.3s3.8-2.1 6-2.1c1.3 0 1.7.1 2.6.3 1 .3 1.5.6 2.1 1 .6.4 1.2.9 1.5 1.6.3.7.6 1.4.7 2 .1.6.1 1.4.1 2.3 0 .9-.1 1.6-.1 2.1-.1.5-.1 1.2-.3 2.1l-6.2 43.3c-.2 1.2-.3 2.2-.5 3-.1.8-.4 1.7-.9 2.9s-1.1 2.2-1.8 2.9c-.7.7-1.6 1.4-3 2-1.3.5-2.1.7-3.9.7-2.4 0-4.2-.6-5.3-1.8-1.1-1.2-1.8-3.1-2.1-5.6-5.5 5.5-11.5 8.2-18 8.2-8.4 0-14.9-3.2-19.5-9.5-4.4-6.3-6.1-14.4-4.7-24.2zm17.7 0c-.4 2.9-.3 5.7.3 8.3s1.8 4.8 3.8 6.6 4.4 2.7 7.4 2.7c2.9 0 5.6-.9 8-2.7 2.4-1.8 4.3-4 5.6-6.6 1.3-2.6 2.2-5.4 2.6-8.3.4-2.9.3-5.7-.2-8.4-.6-2.6-1.8-4.9-3.7-6.8-1.9-1.9-4.3-2.8-7.2-2.8-3.1 0-5.8.9-8.3 2.8-2.4 1.9-4.3 4.1-5.6 6.7-1.4 2.8-2.3 5.6-2.7 8.5zm3-43.7c-1.5-1.7-2-3.8-1.7-6.2.4-2.5 1.5-4.5 3.5-6.2 2-1.7 4.2-2.6 6.6-2.6 2.5 0 4.5.9 5.9 2.6 1.5 1.7 2 3.8 1.7 6.2-.3 2.4-1.5 4.5-3.5 6.2-2 1.7-4.2 2.6-6.7 2.6-2.4 0-4.4-.9-5.8-2.6zm28.4 0c-1.5-1.7-2-3.8-1.7-6.2.4-2.5 1.5-4.5 3.5-6.2 2-1.7 4.2-2.6 6.6-2.6 2.4 0 4.4.9 5.9 2.6 1.5 1.7 2.1 3.8 1.7 6.2-.3 2.4-1.5 4.5-3.5 6.2-2 1.7-4.2 2.6-6.7 2.6-2.4 0-4.3-.9-5.8-2.6zM160.9 101.8c.8-6 2.8-11.5 5.8-16.6 3-5.1 7.1-9.3 12-12.6 5-3.3 10.3-4.9 16-4.9 3.2 0 6.2.7 9 2.1 2.8 1.4 4.5 3.4 5.7 5.9 1.8-4.9 5.1-7.3 9.9-7.3 2.6 0 4.6.9 6 2.7 1.4 1.8 1.9 4.2 1.5 7l-6.9 50.7c-1 6.9-3.3 14.1-6.8 18.9-3.6 4.8-8.1 8.4-13.4 10.7-5.4 2.3-11.5 3.5-18.3 3.5-1.6 0-3.5-.1-5.6-.4-2.2-.3-4.5-.8-7-1.5s-4.8-1.5-6.9-2.5c-2.1-1-3.7-2.2-5-3.7-1.3-1.5-1.8-3.2-1.5-5.1.2-1.7 1.2-3.4 3-5.1 1.8-1.7 3.5-2.6 5.2-2.6 1.5 0 3.3.5 5.5 1.4 2.2.9 4.6 1.8 7.4 2.7 2.7.9 5.6 1.4 8.5 1.4 4.4 0 8.1-1.3 11.3-3.7 3.1-2.4 4.8-5.8 5.4-10.1l.6-5.1v-.5c-4.6 5.5-10.9 8.3-19 8.3-4.5 0-8.4-.9-11.6-2.8-3.3-1.9-5.8-4.4-7.5-7.5-1.7-3.1-2.9-6.7-3.4-10.7s-.5-8.2.1-12.6zm17.7-.4c-.7 5-.1 9.3 1.8 12.7 1.9 3.5 5 5.2 9.4 5.2 3 0 5.7-.9 8.1-2.6 2.4-1.7 4.3-3.9 5.6-6.4 1.3-2.5 2.2-5.3 2.6-8.3.3-2.2.3-4.4.1-6.5-.3-2.1-.8-4-1.6-5.8-.8-1.8-2.1-3.2-3.8-4.3-1.7-1.1-3.7-1.6-6-1.6-2.9 0-5.6.9-8 2.8-2.4 1.8-4.3 4.1-5.6 6.7-1.3 2.5-2.2 5.3-2.6 8.1zM227.7 101.6c.8-5.9 3-11.5 6.4-16.6 3.4-5.2 7.8-9.3 13.1-12.5 5.3-3.2 11-4.8 17.1-4.8 4.6 0 8.8 1 12.6 2.9 3.8 1.9 6.8 4.5 9.1 7.6 2.3 3.1 3.9 6.5 4.9 10.3 1 3.7 1.2 7.5.7 11.1-.4 2.7-1.3 4.6-2.7 5.9-1.4 1.3-3.5 1.9-6.1 1.9H245c0 4.1 1.4 7.3 4.1 9.4 2.8 2.2 6.4 3.2 10.7 3.2 2 0 4.2-.4 6.4-1.1 2.3-.7 4.2-1.5 5.7-2.4 1.6-.9 3.2-1.7 4.8-2.4s3-1.1 4-1.1c1.9 0 3.4.8 4.7 2.3 1.3 1.6 1.7 3.3 1.5 5.2-.3 2.4-2.2 4.8-5.5 7.1s-7.3 4.2-12 5.6c-4.7 1.4-9.2 2.1-13.5 2.1-9.8 0-17.4-3.2-22.6-9.5-5.1-6.3-7-14.4-5.6-24.2zm18.5-5.9h28.1c.1-4-.9-7.2-3-9.7-2.1-2.5-5.2-3.7-9.2-3.7-3.8 0-7.2 1.3-10.1 3.8-2.9 2.5-4.8 5.7-5.8 9.6zM291.7 124.9l10.7-75c.4-2.9 1.6-5.2 3.5-7 1.9-1.8 4.1-2.7 6.7-2.7s4.6.9 6 2.7c1.4 1.8 1.9 4.2 1.5 7l-10.7 75c-.4 2.9-1.6 5.2-3.5 7-1.9 1.8-4.2 2.7-6.8 2.7-2.6 0-4.6-.9-6-2.7-1.3-1.8-1.8-4.1-1.4-7zM315.7 101.6c.8-5.9 3-11.5 6.4-16.6 3.4-5.2 7.8-9.3 13.1-12.5 5.3-3.2 11-4.8 17.1-4.8 4.6 0 8.8 1 12.6 2.9 3.8 1.9 6.8 4.5 9.1 7.6 2.3 3.1 3.9 6.5 4.9 10.3 1 3.7 1.2 7.5.7 11.1-.4 2.7-1.3 4.6-2.7 5.9-1.4 1.3-3.5 1.9-6.1 1.9H333c0 4.1 1.4 7.3 4.1 9.4 2.8 2.2 6.4 3.2 10.7 3.2 2 0 4.2-.4 6.4-1.1 2.3-.7 4.2-1.5 5.7-2.4 1.6-.9 3.2-1.7 4.8-2.4 1.7-.7 3-1.1 4-1.1 1.9 0 3.4.8 4.7 2.3 1.3 1.6 1.7 3.3 1.5 5.2-.3 2.4-2.2 4.8-5.5 7.1s-7.3 4.2-12 5.6c-4.7 1.4-9.2 2.1-13.5 2.1-9.8 0-17.4-3.2-22.6-9.5-5-6.3-7-14.4-5.6-24.2zm18.6-5.9h28.1c.1-4-.9-7.2-3-9.7-2.1-2.5-5.2-3.7-9.1-3.7-3.8 0-7.2 1.3-10.1 3.8-3 2.5-5 5.7-5.9 9.6z"/></svg>